<svg width="29" height="45" viewBox="0 0 29 45" fill="none" xmlns="http://www.w3.org/2000/svg">
<path d="M12.2139 9.20776H6.10936C5.54281 9.20776 5.08958 9.66317 5.08958 10.2324C5.08958 18.0171 0.288076 24.8055 0.245585 24.8766C0.0756205 25.0901 -0.0235254 25.3036 0.00480198 25.574C0.0472931 25.8444 0.217258 26.1717 0.443877 26.3425C5.40118 30.0284 11.3783 44.1603 11.4349 44.3026C11.5907 44.6869 11.8173 45 12.2139 45C12.2847 45 12.4972 44.9146 12.568 44.9004C13.0354 44.8007 13.2337 44.4592 13.2337 43.9753V24.5493C13.2337 24.1508 13.1629 23.852 12.8088 23.667C11.7607 23.1404 11.1092 22.1015 11.1092 20.9345C11.1092 19.7675 11.7607 18.7144 12.8088 18.2021C13.1629 18.0313 13.2337 17.7894 13.2337 17.3909V10.2324C13.2337 9.66317 12.7663 9.20776 12.2139 9.20776ZM2.4268 25.3178C2.71007 24.8909 3.09249 24.3074 3.50324 23.61C7.66737 27.9506 10.6134 33.6575 11.2083 34.7675V38.852C9.09791 34.5114 5.7836 28.3634 2.4268 25.3178ZM11.1941 16.3662C9.77777 17.3055 9.06958 19.1983 9.06958 20.9345C9.06958 22.6708 9.77777 24.6205 11.1941 25.574V30.6831C9.65029 28.1784 7.41242 24.6347 4.50886 21.7315C5.86858 19.0275 6.90253 15.3558 7.11499 11.2571H11.18V16.3662H11.1941Z" fill="#63718E"/>
<path d="M28.2472 24.8625C28.1906 24.7913 23.4032 18.0029 23.4032 10.2183C23.4032 9.64901 22.95 9.1936 22.3834 9.1936H16.2789C15.7123 9.1936 15.2591 9.64901 15.2591 10.2183V17.3767C15.2591 17.7752 15.3299 18.0171 15.684 18.1879C16.7321 18.7145 17.3837 19.7534 17.3837 20.9204C17.3837 22.0873 16.7321 23.1405 15.684 23.6528C15.3299 23.8236 15.2591 24.1367 15.2591 24.5352V43.9754C15.2591 44.4593 15.4432 44.8008 15.9248 44.9004C15.9956 44.9147 16.2081 45.0001 16.2789 45.0001C16.6755 45.0001 16.9021 44.687 17.0579 44.3027C17.1145 44.1604 23.0775 30.0143 28.0489 26.3426C28.2756 26.1718 28.4597 25.8587 28.488 25.5741C28.5305 25.2894 28.4172 25.0902 28.2472 24.8625ZM17.2987 25.5598C18.715 24.6206 19.4091 22.6708 19.4091 20.9204C19.4091 19.1841 18.715 17.2913 17.2987 16.352V11.2429H21.3778C21.5761 15.1139 22.4684 18.5864 23.7573 21.2477C20.9104 23.9944 18.8142 27.0541 17.3128 29.6443V25.5598H17.2987ZM17.2987 38.8663V34.7818C18.1202 33.0598 20.7405 27.1965 24.7346 23.1689C25.2445 24.0798 25.7261 24.8198 26.066 25.3179C22.7092 28.3634 19.3949 34.5114 17.2987 38.8663Z" fill="#63718E"/>
<path d="M6.10933 7.15844H22.3976C22.9641 7.15844 23.4174 6.70304 23.4174 6.13378V1.02467C23.4174 0.455408 22.9641 0 22.3976 0H6.10933C5.54278 0 5.08954 0.455408 5.08954 1.02467V6.13378C5.08954 6.70304 5.54278 7.15844 6.10933 7.15844ZM7.12911 2.04934H21.3778V5.12334H7.12911V2.04934Z" fill="#63718E"/>
</svg>
