<svg width="24" height="25" viewBox="0 0 24 25" fill="none" xmlns="http://www.w3.org/2000/svg">
<path d="M15.535 3.30797C14.779 2.55197 13.463 2.55197 12.707 3.30797L2.808 13.207C2.4333 13.5822 2.22284 14.0907 2.22284 14.621C2.22284 15.1512 2.4333 15.6598 2.808 16.035L8.465 21.692C8.843 22.07 9.345 22.278 9.879 22.278C10.413 22.278 10.915 22.07 11.293 21.692L21.192 11.793C21.57 11.415 21.778 10.913 21.778 10.379C21.778 9.84497 21.57 9.34297 21.192 8.96497L15.535 3.30797ZM9.879 20.278V21.278V20.278L4.222 14.621L14.121 4.72197L19.778 10.379L9.879 20.278Z" fill="#63718E"/>
<path d="M9 16.5C9.55228 16.5 10 16.0523 10 15.5C10 14.9477 9.55228 14.5 9 14.5C8.44772 14.5 8 14.9477 8 15.5C8 16.0523 8.44772 16.5 9 16.5Z" fill="#63718E"/>
<path d="M15.707 22.207L14.293 20.793L20.293 14.793L21.707 16.208L15.707 22.207Z" fill="#63718E"/>
<path d="M8.293 2.79297L9.707 4.20697L3.707 10.207L2.293 8.79197L8.293 2.79297Z" fill="#63718E"/>
</svg>
